<svg width="22" height="22" viewBox="0 0 22 22" fill="none" xmlns="http://www.w3.org/2000/svg">
<path d="M21.7315 0.268601C21.5596 0.0967528 21.3264 0.000213623 21.0834 0.000213623C20.8403 0.000213623 20.6072 0.0967528 20.4353 0.268601L11 9.70385L1.5648 0.268601C1.3929 0.0967528 1.15978 0.000213623 0.916715 0.000213623C0.673648 0.000213623 0.440532 0.0967528 0.268632 0.268601C0.0967833 0.440502 0.000244141 0.673617 0.000244141 0.916685C0.000244141 1.15975 0.0967833 1.39287 0.268632 1.56477L9.70388 11L0.268632 20.4353C0.0967833 20.6072 0.000244141 20.8403 0.000244141 21.0834C0.000244141 21.3264 0.0967833 21.5595 0.268632 21.7314C0.440532 21.9033 0.673648 21.9998 0.916715 21.9998C1.15978 21.9998 1.3929 21.9033 1.5648 21.7314L11 12.2962L20.4353 21.7314C20.6072 21.9033 20.8403 21.9998 21.0834 21.9998C21.3264 21.9998 21.5596 21.9033 21.7315 21.7314C21.9033 21.5595 21.9999 21.3264 21.9999 21.0834C21.9999 20.8403 21.9033 20.6072 21.7315 20.4353L12.2962 11L21.7315 1.56477C21.9033 1.39287 21.9999 1.15975 21.9999 0.916685C21.9999 0.673617 21.9033 0.440502 21.7315 0.268601Z" fill="black"/>
</svg>
