<?xml version="1.0" encoding="UTF-8" standalone="no"?>
<!DOCTYPE svg PUBLIC "-//W3C//DTD SVG 1.0//EN" "http://www.w3.org/TR/2001/PR-SVG-20010719/DTD/svg10.dtd">
<svg width="123cm" height="35cm" viewBox="-611 -688 2459 689" xmlns="http://www.w3.org/2000/svg" xmlns:xlink="http://www.w3.org/1999/xlink">
  <g>
    <rect style="fill: #e9ecff" x="-244.78" y="-598.204" width="1685.42" height="480.357"/>
    <rect style="fill: none; fill-opacity:0; stroke-width: 10; stroke: #0000ff" x="-244.78" y="-598.204" width="1685.42" height="480.357"/>
  </g>
  <g>
    <rect style="fill: #ffffff" x="-185.387" y="-377.036" width="234.95" height="120"/>
    <rect style="fill: none; fill-opacity:0; stroke-width: 2; stroke: #000000" x="-185.387" y="-377.036" width="234.95" height="120"/>
    <text font-size="12.8" style="fill: #000000;text-anchor:middle;font-family:sans-serif;font-style:normal;font-weight:700" x="-67.9124" y="-321.155">
      <tspan x="-67.9124" y="-321.155">Создание тематического</tspan>
      <tspan x="-67.9124" y="-305.155">раздела в Админке Django</tspan>
    </text>
    <text font-size="9.6" style="fill: #000000;text-anchor:end;font-family:sans-serif;font-style:normal;font-weight:700" x="45.9626" y="-260.636">A0</text>
  </g>
  <g>
    <rect style="fill: #ffffff" x="236.971" y="-473.317" width="232.95" height="120"/>
    <rect style="fill: none; fill-opacity:0; stroke-width: 2; stroke: #000000" x="236.971" y="-473.317" width="232.95" height="120"/>
    <text font-size="12.8" style="fill: #000000;text-anchor:middle;font-family:sans-serif;font-style:normal;font-weight:700" x="353.446" y="-417.435">
      <tspan x="353.446" y="-417.435">Создание моделей обьектов</tspan>
      <tspan x="353.446" y="-401.435">раздела</tspan>
    </text>
    <text font-size="9.6" style="fill: #000000;text-anchor:end;font-family:sans-serif;font-style:normal;font-weight:700" x="466.321" y="-356.917">A0</text>
  </g>
  <g>
    <path style="fill: none; fill-opacity:0; stroke-width: 2; stroke: #000000" d="M -342.96,-319.658 A 1.94885,1.94885 0 0 0 -344.909,-317.709"/>
    <line style="fill: none; fill-opacity:0; stroke-width: 2; stroke: #000000" x1="-344.909" y1="-314.146" x2="-344.909" y2="-317.709"/>
    <path style="fill: none; fill-opacity:0; stroke-width: 2; stroke: #000000" d="M -185.387,-318.731 A 0.926962,0.926962 0 0 0 -186.314,-319.658"/>
    <line style="fill: none; fill-opacity:0; stroke-width: 2; stroke: #000000" x1="-342.96" y1="-319.658" x2="-186.314" y2="-319.658"/>
    <line style="fill: none; fill-opacity:0; stroke-width: 2; stroke: #000000" x1="-185.387" y1="-318.731" x2="-185.387" y2="-317.036"/>
  </g>
  <g>
    <rect style="fill: #adadad" x="-425.284" y="-328.783" width="160.75" height="14.9"/>
    <text font-size="12.8" style="fill: #000000;text-anchor:middle;font-family:sans-serif;font-style:normal;font-weight:normal" x="-344.909" y="-316.902">
      <tspan x="-344.909" y="-316.902">Данные о виде раздела</tspan>
    </text>
  </g>
  <g>
    <path style="fill: none; fill-opacity:0; stroke-width: 2; stroke: #000000" d="M 379.444,-317.036 A 12.8269,12.8269 0 0 0 392.271,-329.863"/>
    <line style="fill: none; fill-opacity:0; stroke-width: 2; stroke: #000000" x1="49.5626" y1="-317.036" x2="379.444" y2="-317.036"/>
    <line style="fill: none; fill-opacity:0; stroke-width: 2; stroke: #000000" x1="392.271" y1="-329.863" x2="392.271" y2="-353.317"/>
  </g>
  <g>
    <path style="fill: none; fill-opacity:0; stroke-width: 2; stroke: #000000" d="M -91.4074,-670.406 A 0.44899,0.44899 0 0 0 -91.8564,-670.855"/>
    <line style="fill: none; fill-opacity:0; stroke-width: 2; stroke: #000000" x1="-92.6774" y1="-670.855" x2="-91.8564" y2="-670.855"/>
    <line style="fill: none; fill-opacity:0; stroke-width: 2; stroke: #000000" x1="-91.4074" y1="-670.406" x2="-91.4074" y2="-377.036"/>
  </g>
  <g>
    <rect style="fill: #adadad" x="-147.567" y="-682.737" width="111.05" height="14.9"/>
    <text font-size="12.8" style="fill: #000000;text-anchor:middle;font-family:sans-serif;font-style:normal;font-weight:normal" x="-92.0424" y="-670.855">
      <tspan x="-92.0424" y="-670.855">Модель раздела</tspan>
    </text>
  </g>
  <g>
    <path style="fill: none; fill-opacity:0; stroke-width: 2; stroke: #000000" d="M -107.692,-3.90173 A 0.621372,0.621372 0 0 0 -107.071,-4.5231"/>
    <line style="fill: none; fill-opacity:0; stroke-width: 2; stroke: #000000" x1="-108.828" y1="-3.90173" x2="-107.692" y2="-3.90173"/>
    <line style="fill: none; fill-opacity:0; stroke-width: 2; stroke: #000000" x1="-107.071" y1="-4.5231" x2="-107.071" y2="-257.036"/>
  </g>
  <g>
    <rect style="fill: #adadad" x="-147.675" y="-15.783" width="79.45" height="14.9"/>
    <text font-size="12.8" style="fill: #000000;text-anchor:middle;font-family:sans-serif;font-style:normal;font-weight:normal" x="-107.95" y="-3.90173">
      <tspan x="-107.95" y="-3.90173">Django ORM</tspan>
    </text>
  </g>
  <g>
    <rect style="fill: #adadad" x="67.8666" y="-328.918" width="306.1" height="14.9"/>
    <text font-size="12.8" style="fill: #000000;text-anchor:middle;font-family:sans-serif;font-style:normal;font-weight:normal" x="220.917" y="-317.036">
      <tspan x="220.917" y="-317.036">Админка созданного тематического раздела</tspan>
    </text>
  </g>
  <g>
    <path style="fill: none; fill-opacity:0; stroke-width: 2; stroke: #000000" d="M -312.582,-354.383 A 15,15 0 0 0 -297.582,-369.383"/>
    <line style="fill: none; fill-opacity:0; stroke-width: 2; stroke: #000000" x1="-553.187" y1="-354.383" x2="-312.582" y2="-354.383"/>
    <path style="fill: none; fill-opacity:0; stroke-width: 2; stroke: #000000" d="M -282.582,-413.317 A 15,15 0 0 0 -297.582,-398.317"/>
    <line style="fill: none; fill-opacity:0; stroke-width: 2; stroke: #000000" x1="-297.582" y1="-369.383" x2="-297.582" y2="-398.317"/>
    <line style="fill: none; fill-opacity:0; stroke-width: 2; stroke: #000000" x1="-282.582" y1="-413.317" x2="236.971" y2="-413.317"/>
  </g>
  <g>
    <rect style="fill: #adadad" x="-586.759" y="-366.264" width="322.75" height="14.9"/>
    <text font-size="12.8" style="fill: #000000;text-anchor:middle;font-family:sans-serif;font-style:normal;font-weight:normal" x="-425.384" y="-354.383">
      <tspan x="-425.384" y="-354.383">Данные о фильтрах моделей обьектов раздела</tspan>
    </text>
  </g>
  <g>
    <path style="fill: none; fill-opacity:0; stroke-width: 2; stroke: #000000" d="M 377.509,-667.922 A 0.768242,0.768242 0 0 0 376.741,-667.154"/>
    <line style="fill: none; fill-opacity:0; stroke-width: 2; stroke: #000000" x1="378.914" y1="-667.922" x2="377.509" y2="-667.922"/>
    <line style="fill: none; fill-opacity:0; stroke-width: 2; stroke: #000000" x1="376.741" y1="-667.154" x2="376.741" y2="-490.317"/>
    <polygon style="fill: #000000" points="368.741,-490.317 376.741,-474.317 384.741,-490.317 "/>
    <polygon style="fill: none; fill-opacity:0; stroke-width: 2; stroke: #000000" points="368.741,-490.317 376.741,-474.317 384.741,-490.317 "/>
  </g>
  <g>
    <rect style="fill: #adadad" x="297.802" y="-679.803" width="160.05" height="14.9"/>
    <text font-size="12.8" style="fill: #000000;text-anchor:middle;font-family:sans-serif;font-style:normal;font-weight:normal" x="377.827" y="-667.922">
      <tspan x="377.827" y="-667.922">Типы обьектов раздела</tspan>
    </text>
  </g>
  <g>
    <path style="fill: none; fill-opacity:0; stroke-width: 2; stroke: #000000" d="M 868.497,-398.317 A 15,15 0 0 0 853.497,-413.317"/>
    <line style="fill: none; fill-opacity:0; stroke-width: 2; stroke: #000000" x1="469.921" y1="-413.317" x2="853.497" y2="-413.317"/>
    <line style="fill: none; fill-opacity:0; stroke-width: 2; stroke: #000000" x1="868.497" y1="-398.317" x2="868.497" y2="-353.874"/>
  </g>
  <g>
    <rect style="fill: #adadad" x="557.434" y="-425.198" width="223.55" height="14.9"/>
    <text font-size="12.8" style="fill: #000000;text-anchor:middle;font-family:sans-serif;font-style:normal;font-weight:normal" x="669.209" y="-413.317">
      <tspan x="669.209" y="-413.317">Записи о моделях объектов в БД</tspan>
    </text>
  </g>
  <g>
    <rect style="fill: #ffffff" x="721.317" y="-353.874" width="245.3" height="120"/>
    <rect style="fill: none; fill-opacity:0; stroke-width: 2; stroke: #000000" x="721.317" y="-353.874" width="245.3" height="120"/>
    <text font-size="12.8" style="fill: #000000;text-anchor:middle;font-family:sans-serif;font-style:normal;font-weight:700" x="843.967" y="-297.993">
      <tspan x="843.967" y="-297.993">Добавление объектов в</tspan>
      <tspan x="843.967" y="-281.993">раздел</tspan>
    </text>
    <text font-size="9.6" style="fill: #000000;text-anchor:end;font-family:sans-serif;font-style:normal;font-weight:700" x="963.017" y="-237.474">A0</text>
  </g>
  <g>
    <path style="fill: none; fill-opacity:0; stroke-width: 2; stroke: #000000" d="M 555.351,-368.317 A 15,15 0 0 0 540.351,-383.317"/>
    <line style="fill: none; fill-opacity:0; stroke-width: 2; stroke: #000000" x1="469.921" y1="-383.317" x2="540.351" y2="-383.317"/>
    <path style="fill: none; fill-opacity:0; stroke-width: 2; stroke: #000000" d="M 555.351,-199.15 A 15,15 0 0 0 570.351,-184.15"/>
    <line style="fill: none; fill-opacity:0; stroke-width: 2; stroke: #000000" x1="555.351" y1="-368.317" x2="555.351" y2="-199.15"/>
    <path style="fill: none; fill-opacity:0; stroke-width: 2; stroke: #000000" d="M 788.084,-184.15 A 15,15 0 0 0 803.084,-199.15"/>
    <line style="fill: none; fill-opacity:0; stroke-width: 2; stroke: #000000" x1="570.351" y1="-184.15" x2="788.084" y2="-184.15"/>
    <line style="fill: none; fill-opacity:0; stroke-width: 2; stroke: #000000" x1="803.084" y1="-199.15" x2="803.084" y2="-233.874"/>
  </g>
  <g>
    <rect style="fill: #adadad" x="570.417" y="-196.032" width="217.6" height="14.9"/>
    <text font-size="12.8" style="fill: #000000;text-anchor:middle;font-family:sans-serif;font-style:normal;font-weight:normal" x="679.217" y="-184.15">
      <tspan x="679.217" y="-184.15">Форма для добавления объекта</tspan>
    </text>
  </g>
  <g>
    <path style="fill: none; fill-opacity:0; stroke-width: 2; stroke: #000000" d="M 966.617,-290.788 A 1.68786,1.68786 0 0 0 968.305,-289.1"/>
    <line style="fill: none; fill-opacity:0; stroke-width: 2; stroke: #000000" x1="966.617" y1="-293.874" x2="966.617" y2="-290.788"/>
    <line style="fill: none; fill-opacity:0; stroke-width: 2; stroke: #000000" x1="968.305" y1="-289.1" x2="1159.98" y2="-289.1"/>
  </g>
  <g>
    <rect style="fill: #ffffff" x="1159.98" y="-349.1" width="245.3" height="120"/>
    <rect style="fill: none; fill-opacity:0; stroke-width: 2; stroke: #000000" x="1159.98" y="-349.1" width="245.3" height="120"/>
    <text font-size="12.8" style="fill: #000000;text-anchor:middle;font-family:sans-serif;font-style:normal;font-weight:700" x="1282.63" y="-293.219">
      <tspan x="1282.63" y="-293.219">Показ объектов в</tspan>
      <tspan x="1282.63" y="-277.219">шаблоне</tspan>
    </text>
    <text font-size="9.6" style="fill: #000000;text-anchor:end;font-family:sans-serif;font-style:normal;font-weight:700" x="1401.68" y="-232.7">A0</text>
  </g>
  <g>
    <rect style="fill: #adadad" x="978.447" y="-300.981" width="169.7" height="14.9"/>
    <text font-size="12.8" style="fill: #000000;text-anchor:middle;font-family:sans-serif;font-style:normal;font-weight:normal" x="1063.3" y="-289.1">
      <tspan x="1063.3" y="-289.1">Записи об объектах в БД</tspan>
    </text>
  </g>
  <g>
    <path style="fill: none; fill-opacity:0; stroke-width: 2; stroke: #000000" d="M 1241.74,-3.0415 A 0.665436,0.665436 0 0 0 1242.41,-2.37606"/>
    <line style="fill: none; fill-opacity:0; stroke-width: 2; stroke: #000000" x1="1243.63" y1="-2.37606" x2="1242.41" y2="-2.37606"/>
    <line style="fill: none; fill-opacity:0; stroke-width: 2; stroke: #000000" x1="1241.74" y1="-3.0415" x2="1241.74" y2="-229.1"/>
  </g>
  <g>
    <rect style="fill: #adadad" x="1229.26" y="-14.2573" width="26.85" height="14.9"/>
    <text font-size="12.8" style="fill: #000000;text-anchor:middle;font-family:sans-serif;font-style:normal;font-weight:normal" x="1242.68" y="-2.37606">
      <tspan x="1242.68" y="-2.37606">Jinja</tspan>
    </text>
  </g>
  <g>
    <path style="fill: none; fill-opacity:0; stroke-width: 2; stroke: #000000" d="M 1258.1,-673.989 A 1.56235,1.56235 0 0 0 1256.53,-675.551"/>
    <line style="fill: none; fill-opacity:0; stroke-width: 2; stroke: #000000" x1="1253.68" y1="-675.551" x2="1256.53" y2="-675.551"/>
    <line style="fill: none; fill-opacity:0; stroke-width: 2; stroke: #000000" x1="1258.1" y1="-673.989" x2="1258.1" y2="-349.1"/>
  </g>
  <g>
    <rect style="fill: #adadad" x="1147.91" y="-687.433" width="215.95" height="30.9"/>
    <text font-size="12.8" style="fill: #000000;text-anchor:middle;font-family:sans-serif;font-style:normal;font-weight:normal" x="1255.89" y="-675.551">
      <tspan x="1255.89" y="-675.551">Соглашение о данных, которые</tspan>
      <tspan x="1255.89" y="-659.551"> передаются в HTML шаблоны</tspan>
    </text>
  </g>
  <g>
    <path style="fill: none; fill-opacity:0; stroke-width: 2; stroke: #000000" d="M 1405.28,-280.132 A 4.90494,4.90494 0 0 0 1410.18,-275.227"/>
    <line style="fill: none; fill-opacity:0; stroke-width: 2; stroke: #000000" x1="1405.28" y1="-289.1" x2="1405.28" y2="-280.132"/>
    <line style="fill: none; fill-opacity:0; stroke-width: 2; stroke: #000000" x1="1410.18" y1="-275.227" x2="1832" y2="-275.227"/>
  </g>
  <g>
    <rect style="fill: #adadad" x="1465.26" y="-287.108" width="306.75" height="14.9"/>
    <text font-size="12.8" style="fill: #000000;text-anchor:middle;font-family:sans-serif;font-style:normal;font-weight:normal" x="1618.64" y="-275.227">
      <tspan x="1618.64" y="-275.227">Отсортированные обьекты на HTML шаблоне</tspan>
    </text>
  </g>
  <g>
    <path style="fill: none; fill-opacity:0; stroke-width: 2; stroke: #727272" d="M -435.265,-205.318 A 2.5431,2.5431 0 0 0 -437.808,-202.775"/>
    <line style="fill: none; fill-opacity:0; stroke-width: 2; stroke: #727272" x1="-437.808" y1="-198.125" x2="-437.808" y2="-202.775"/>
    <path style="fill: none; fill-opacity:0; stroke-width: 2; stroke: #727272" d="M 285.811,-205.318 A 15,15 0 0 0 300.811,-220.318"/>
    <line style="fill: none; fill-opacity:0; stroke-width: 2; stroke: #727272" x1="-435.265" y1="-205.318" x2="285.811" y2="-205.318"/>
    <path style="fill: none; fill-opacity:0; stroke-width: 2; stroke: #727272" d="M 315.811,-292.31 A 15,15 0 0 0 300.811,-277.31"/>
    <line style="fill: none; fill-opacity:0; stroke-width: 2; stroke: #727272" x1="300.811" y1="-220.318" x2="300.811" y2="-277.31"/>
    <path style="fill: none; fill-opacity:0; stroke-width: 2; stroke: #727272" d="M 720.765,-292.31 A 0.552923,0.552923 0 0 0 721.317,-292.863"/>
    <line style="fill: none; fill-opacity:0; stroke-width: 2; stroke: #727272" x1="315.811" y1="-292.31" x2="720.765" y2="-292.31"/>
    <line style="fill: none; fill-opacity:0; stroke-width: 2; stroke: #727272" x1="721.317" y1="-292.863" x2="721.317" y2="-293.874"/>
  </g>
  <g>
    <rect style="fill: #adadad" x="-610.183" y="-213.603" width="344.75" height="14.9"/>
    <text font-size="12.8" style="fill: #000000;text-anchor:middle;font-family:sans-serif;font-style:normal;font-weight:normal" x="-437.808" y="-201.722">
      <tspan x="-437.808" y="-201.722">Характеристики для каждого отдельного объекта</tspan>
    </text>
  </g>
  <g>
    <path style="fill: none; fill-opacity:0; stroke-width: 2; stroke: #000000" d="M -391.03,-443.317 A 2.52527,2.52527 0 0 0 -393.555,-440.791"/>
    <line style="fill: none; fill-opacity:0; stroke-width: 2; stroke: #000000" x1="-393.555" y1="-436.174" x2="-393.555" y2="-440.791"/>
    <line style="fill: none; fill-opacity:0; stroke-width: 2; stroke: #000000" x1="-391.03" y1="-443.317" x2="236.971" y2="-443.317"/>
  </g>
  <g>
    <rect style="fill: #adadad" x="-519.43" y="-451.627" width="251.75" height="14.9"/>
    <text font-size="12.8" style="fill: #000000;text-anchor:middle;font-family:sans-serif;font-style:normal;font-weight:normal" x="-393.555" y="-439.745">
      <tspan x="-393.555" y="-439.745">Данные о моделях обьектов раздела</tspan>
    </text>
  </g>
  <text font-size="12.7998" style="fill: #000000;text-anchor:start;font-family:sans-serif;font-style:normal;font-weight:normal" x="684.133" y="-400.076">
    <tspan x="684.133" y="-400.076"></tspan>
  </text>
  <text font-size="12.7998" style="fill: #000000;text-anchor:start;font-family:sans-serif;font-style:normal;font-weight:normal" x="680.635" y="-415.235">
    <tspan x="680.635" y="-415.235"></tspan>
  </text>
  <text font-size="12.7998" style="fill: #000000;text-anchor:start;font-family:sans-serif;font-style:normal;font-weight:normal" x="688.797" y="-398.327">
    <tspan x="688.797" y="-398.327"></tspan>
  </text>
  <text font-size="12.7998" style="fill: #000000;text-anchor:start;font-family:sans-serif;font-style:normal;font-weight:normal" x="665.477" y="-416.401">
    <tspan x="665.477" y="-416.401"></tspan>
  </text>
</svg>
