<svg width="135" height="20" viewBox="0 0 135 20" fill="none" xmlns="http://www.w3.org/2000/svg">
<path d="M0.264205 15V0.454545H10.0653V2.99006H3.33949V6.45597H9.56108V8.99148H3.33949V12.4645H10.0938V15H0.264205ZM15.5643 15.206C14.8683 15.206 14.248 15.0852 13.7035 14.8438C13.159 14.5975 12.7281 14.2353 12.4109 13.7571C12.0984 13.2741 11.9421 12.6728 11.9421 11.9531C11.9421 11.3471 12.0534 10.8381 12.2759 10.4261C12.4985 10.0142 12.8015 9.68277 13.185 9.43182C13.5685 9.18087 14.0041 8.99148 14.4918 8.86364C14.9843 8.7358 15.5004 8.64583 16.0401 8.59375C16.6746 8.52746 17.186 8.46591 17.5742 8.40909C17.9625 8.34754 18.2442 8.25758 18.4194 8.1392C18.5946 8.02083 18.6822 7.84564 18.6822 7.61364V7.57102C18.6822 7.12121 18.5401 6.7732 18.256 6.52699C17.9767 6.28078 17.579 6.15767 17.0629 6.15767C16.5183 6.15767 16.0851 6.27841 15.7631 6.51989C15.4412 6.75663 15.2281 7.05492 15.1239 7.41477L12.3256 7.1875C12.4677 6.52462 12.747 5.9517 13.1637 5.46875C13.5804 4.98106 14.1178 4.60701 14.7759 4.34659C15.4388 4.08144 16.2058 3.94886 17.0771 3.94886C17.6831 3.94886 18.2631 4.01989 18.8171 4.16193C19.3758 4.30398 19.8706 4.52415 20.3015 4.82244C20.7371 5.12074 21.0804 5.50426 21.3313 5.97301C21.5823 6.43703 21.7077 6.99337 21.7077 7.64205V15H18.8384V13.4872H18.7532C18.578 13.8281 18.3436 14.1288 18.0501 14.3892C17.7565 14.6449 17.4038 14.8461 16.9918 14.9929C16.5799 15.1349 16.104 15.206 15.5643 15.206ZM16.4308 13.1179C16.8758 13.1179 17.2688 13.0303 17.6097 12.8551C17.9506 12.6752 18.2182 12.4337 18.4123 12.1307C18.6064 11.8277 18.7035 11.4844 18.7035 11.1009V9.94318C18.6088 10.0047 18.4786 10.0616 18.3129 10.1136C18.1519 10.161 17.9696 10.206 17.766 10.2486C17.5624 10.2865 17.3588 10.322 17.1552 10.3551C16.9516 10.3835 16.7669 10.4096 16.6012 10.4332C16.2461 10.4853 15.936 10.5682 15.6708 10.6818C15.4057 10.7955 15.1997 10.9493 15.0529 11.1435C14.9061 11.3329 14.8327 11.5696 14.8327 11.8537C14.8327 12.2656 14.9819 12.5805 15.2802 12.7983C15.5832 13.0114 15.9667 13.1179 16.4308 13.1179ZM33.1317 7.2017L30.3619 7.37216C30.3145 7.13542 30.2127 6.92235 30.0565 6.73295C29.9002 6.53883 29.6942 6.38494 29.4386 6.27131C29.1876 6.15294 28.887 6.09375 28.5366 6.09375C28.0678 6.09375 27.6725 6.19318 27.3505 6.39205C27.0285 6.58617 26.8675 6.84659 26.8675 7.1733C26.8675 7.43371 26.9717 7.65388 27.18 7.83381C27.3884 8.01373 27.7459 8.15814 28.2525 8.26705L30.2269 8.66477C31.2875 8.88258 32.0782 9.23295 32.5991 9.71591C33.1199 10.1989 33.3803 10.8333 33.3803 11.6193C33.3803 12.3343 33.1696 12.9616 32.7482 13.5014C32.3316 14.0412 31.7586 14.4626 31.0295 14.7656C30.305 15.0639 29.4693 15.2131 28.5224 15.2131C27.0782 15.2131 25.9277 14.9124 25.0707 14.3111C24.2184 13.705 23.7189 12.8812 23.5721 11.8395L26.5479 11.6832C26.6379 12.1236 26.8557 12.4598 27.2013 12.6918C27.547 12.919 27.9897 13.0327 28.5295 13.0327C29.0598 13.0327 29.4859 12.9309 29.8079 12.7273C30.1346 12.5189 30.3003 12.2514 30.305 11.9247C30.3003 11.6501 30.1843 11.4252 29.957 11.25C29.7298 11.0701 29.3794 10.9328 28.9059 10.8381L27.0167 10.4616C25.9513 10.2486 25.1583 9.87926 24.6374 9.35369C24.1213 8.82812 23.8633 8.15814 23.8633 7.34375C23.8633 6.64299 24.0527 6.0393 24.4315 5.53267C24.815 5.02604 25.3524 4.63542 26.0437 4.3608C26.7397 4.08617 27.5541 3.94886 28.4869 3.94886C29.8647 3.94886 30.949 4.24006 31.7397 4.82244C32.5352 5.40483 32.9992 6.19792 33.1317 7.2017ZM37.1534 19.0909C36.7699 19.0909 36.41 19.0601 36.0739 18.9986C35.7424 18.9418 35.4678 18.8684 35.25 18.7784L35.9318 16.5199C36.2869 16.6288 36.6065 16.688 36.8906 16.6974C37.1795 16.7069 37.428 16.6406 37.6364 16.4986C37.8494 16.3565 38.0223 16.1151 38.1548 15.7741L38.3324 15.3125L34.419 4.09091H37.6009L39.8594 12.1023H39.973L42.2528 4.09091H45.456L41.2159 16.179C41.0123 16.7661 40.7353 17.2775 40.3849 17.7131C40.0393 18.1534 39.6013 18.492 39.071 18.7287C38.5407 18.9702 37.9015 19.0909 37.1534 19.0909ZM59.8949 5.54688H56.7841C56.7273 5.14441 56.6113 4.78693 56.4361 4.47443C56.2609 4.1572 56.036 3.88731 55.7614 3.66477C55.4867 3.44223 55.1695 3.27178 54.8097 3.15341C54.4545 3.03504 54.0687 2.97585 53.652 2.97585C52.8991 2.97585 52.2434 3.16288 51.6847 3.53693C51.1259 3.90625 50.6927 4.44602 50.3849 5.15625C50.0772 5.86174 49.9233 6.71875 49.9233 7.72727C49.9233 8.7642 50.0772 9.63542 50.3849 10.3409C50.6974 11.0464 51.133 11.5791 51.6918 11.9389C52.2505 12.2988 52.8968 12.4787 53.6307 12.4787C54.0426 12.4787 54.4238 12.4242 54.7741 12.3153C55.1293 12.2064 55.4441 12.0478 55.7188 11.8395C55.9934 11.6264 56.2206 11.3684 56.4006 11.0653C56.5852 10.7623 56.7131 10.4167 56.7841 10.0284L59.8949 10.0426C59.8144 10.7102 59.6132 11.3542 59.2912 11.9744C58.974 12.59 58.5455 13.1416 58.0057 13.6293C57.4706 14.1122 56.8314 14.4957 56.0881 14.7798C55.3494 15.0592 54.5137 15.1989 53.581 15.1989C52.2836 15.1989 51.1236 14.9053 50.1009 14.3182C49.0829 13.7311 48.2779 12.8812 47.6861 11.7685C47.099 10.6558 46.8054 9.30871 46.8054 7.72727C46.8054 6.1411 47.1037 4.79167 47.7003 3.67898C48.2969 2.56629 49.1065 1.71875 50.1293 1.13636C51.152 0.549242 52.3026 0.255681 53.581 0.255681C54.4238 0.255681 55.205 0.374053 55.9247 0.610795C56.6491 0.847538 57.2907 1.19318 57.8494 1.64773C58.4081 2.09754 58.8627 2.64915 59.2131 3.30256C59.5682 3.95597 59.7955 4.70407 59.8949 5.54688ZM66.9723 15.2131C65.8691 15.2131 64.915 14.9787 64.1101 14.5099C63.3099 14.0365 62.692 13.3783 62.2564 12.5355C61.8208 11.688 61.603 10.7055 61.603 9.58807C61.603 8.46117 61.8208 7.47633 62.2564 6.63352C62.692 5.78598 63.3099 5.12784 64.1101 4.65909C64.915 4.18561 65.8691 3.94886 66.9723 3.94886C68.0755 3.94886 69.0272 4.18561 69.8274 4.65909C70.6323 5.12784 71.2526 5.78598 71.6882 6.63352C72.1238 7.47633 72.3416 8.46117 72.3416 9.58807C72.3416 10.7055 72.1238 11.688 71.6882 12.5355C71.2526 13.3783 70.6323 14.0365 69.8274 14.5099C69.0272 14.9787 68.0755 15.2131 66.9723 15.2131ZM66.9865 12.8693C67.4884 12.8693 67.9074 12.7273 68.2436 12.4432C68.5798 12.1544 68.8331 11.7614 69.0036 11.2642C69.1787 10.767 69.2663 10.2012 69.2663 9.56676C69.2663 8.93229 69.1787 8.36648 69.0036 7.86932C68.8331 7.37216 68.5798 6.97917 68.2436 6.69034C67.9074 6.40151 67.4884 6.2571 66.9865 6.2571C66.4799 6.2571 66.0537 6.40151 65.7081 6.69034C65.3672 6.97917 65.1091 7.37216 64.9339 7.86932C64.7635 8.36648 64.6783 8.93229 64.6783 9.56676C64.6783 10.2012 64.7635 10.767 64.9339 11.2642C65.1091 11.7614 65.3672 12.1544 65.7081 12.4432C66.0537 12.7273 66.4799 12.8693 66.9865 12.8693ZM74.3089 15V4.09091H77.1925V6.01562H77.3203C77.5476 5.37642 77.9264 4.87216 78.4567 4.50284C78.987 4.13352 79.6214 3.94886 80.3601 3.94886C81.1082 3.94886 81.745 4.13589 82.2706 4.50994C82.7962 4.87926 83.1465 5.38116 83.3217 6.01562H83.4354C83.6579 5.39062 84.0604 4.8911 84.6428 4.51705C85.2299 4.13826 85.9235 3.94886 86.7237 3.94886C87.7417 3.94886 88.5679 4.2732 89.2024 4.92188C89.8416 5.56581 90.1612 6.47964 90.1612 7.66335V15H87.1428V8.25994C87.1428 7.65388 86.9818 7.19934 86.6598 6.89631C86.3378 6.59328 85.9354 6.44176 85.4524 6.44176C84.9032 6.44176 84.4747 6.61695 84.1669 6.96733C83.8591 7.31297 83.7053 7.76989 83.7053 8.33807V15H80.772V8.19602C80.772 7.66098 80.6181 7.23485 80.3104 6.91761C80.0073 6.60038 79.6072 6.44176 79.1101 6.44176C78.7739 6.44176 78.4709 6.52699 78.201 6.69744C77.9358 6.86316 77.7251 7.09754 77.5689 7.40057C77.4126 7.69886 77.3345 8.04924 77.3345 8.4517V15H74.3089ZM92.5511 19.0909V4.09091H95.5341V5.9233H95.669C95.8016 5.62973 95.9934 5.33144 96.2443 5.02841C96.5 4.72064 96.8314 4.46496 97.2386 4.26136C97.6506 4.05303 98.1619 3.94886 98.7727 3.94886C99.5682 3.94886 100.302 4.1572 100.974 4.57386C101.647 4.9858 102.184 5.60843 102.587 6.44176C102.989 7.27036 103.19 8.30966 103.19 9.55966C103.19 10.7765 102.994 11.804 102.601 12.642C102.213 13.4754 101.682 14.1075 101.01 14.5384C100.342 14.9645 99.5942 15.1776 98.7656 15.1776C98.1785 15.1776 97.679 15.0805 97.267 14.8864C96.8598 14.6922 96.526 14.4484 96.2656 14.1548C96.0052 13.8565 95.8063 13.5559 95.669 13.2528H95.5767V19.0909H92.5511ZM95.5128 9.54545C95.5128 10.1941 95.6027 10.7599 95.7827 11.2429C95.9626 11.7259 96.223 12.1023 96.5639 12.3722C96.9048 12.6373 97.3191 12.7699 97.8068 12.7699C98.2992 12.7699 98.7159 12.6349 99.0568 12.3651C99.3977 12.0904 99.6558 11.7116 99.831 11.2287C100.011 10.741 100.101 10.1799 100.101 9.54545C100.101 8.91572 100.013 8.36174 99.8381 7.88352C99.6629 7.4053 99.4048 7.03125 99.0639 6.76136C98.723 6.49148 98.304 6.35653 97.8068 6.35653C97.3144 6.35653 96.8977 6.48674 96.5568 6.74716C96.2206 7.00758 95.9626 7.37689 95.7827 7.85511C95.6027 8.33333 95.5128 8.89678 95.5128 9.54545ZM108.318 15.206C107.622 15.206 107.002 15.0852 106.457 14.8438C105.913 14.5975 105.482 14.2353 105.165 13.7571C104.852 13.2741 104.696 12.6728 104.696 11.9531C104.696 11.3471 104.807 10.8381 105.03 10.4261C105.252 10.0142 105.555 9.68277 105.939 9.43182C106.322 9.18087 106.758 8.99148 107.246 8.86364C107.738 8.7358 108.254 8.64583 108.794 8.59375C109.429 8.52746 109.94 8.46591 110.328 8.40909C110.716 8.34754 110.998 8.25758 111.173 8.1392C111.348 8.02083 111.436 7.84564 111.436 7.61364V7.57102C111.436 7.12121 111.294 6.7732 111.01 6.52699C110.731 6.28078 110.333 6.15767 109.817 6.15767C109.272 6.15767 108.839 6.27841 108.517 6.51989C108.195 6.75663 107.982 7.05492 107.878 7.41477L105.08 7.1875C105.222 6.52462 105.501 5.9517 105.918 5.46875C106.334 4.98106 106.872 4.60701 107.53 4.34659C108.193 4.08144 108.96 3.94886 109.831 3.94886C110.437 3.94886 111.017 4.01989 111.571 4.16193C112.13 4.30398 112.625 4.52415 113.055 4.82244C113.491 5.12074 113.834 5.50426 114.085 5.97301C114.336 6.43703 114.462 6.99337 114.462 7.64205V15H111.592V13.4872H111.507C111.332 13.8281 111.098 14.1288 110.804 14.3892C110.51 14.6449 110.158 14.8461 109.746 14.9929C109.334 15.1349 108.858 15.206 108.318 15.206ZM109.185 13.1179C109.63 13.1179 110.023 13.0303 110.364 12.8551C110.705 12.6752 110.972 12.4337 111.166 12.1307C111.36 11.8277 111.457 11.4844 111.457 11.1009V9.94318C111.363 10.0047 111.232 10.0616 111.067 10.1136C110.906 10.161 110.723 10.206 110.52 10.2486C110.316 10.2865 110.113 10.322 109.909 10.3551C109.705 10.3835 109.521 10.4096 109.355 10.4332C109 10.4853 108.69 10.5682 108.425 10.6818C108.16 10.7955 107.954 10.9493 107.807 11.1435C107.66 11.3329 107.587 11.5696 107.587 11.8537C107.587 12.2656 107.736 12.5805 108.034 12.7983C108.337 13.0114 108.721 13.1179 109.185 13.1179ZM116.809 15V4.09091H119.742V5.99432H119.856C120.055 5.31723 120.388 4.80587 120.857 4.46023C121.326 4.10985 121.866 3.93466 122.477 3.93466C122.628 3.93466 122.791 3.94413 122.967 3.96307C123.142 3.98201 123.296 4.00805 123.428 4.04119V6.72585C123.286 6.68324 123.09 6.64536 122.839 6.61222C122.588 6.57907 122.358 6.5625 122.15 6.5625C121.705 6.5625 121.307 6.65956 120.957 6.85369C120.611 7.04309 120.336 7.30824 120.133 7.64915C119.934 7.99006 119.835 8.38305 119.835 8.82812V15H116.809ZM129.456 15.2131C128.334 15.2131 127.368 14.9858 126.559 14.5312C125.754 14.072 125.133 13.4233 124.698 12.5852C124.262 11.7424 124.044 10.7457 124.044 9.59517C124.044 8.47301 124.262 7.48816 124.698 6.64062C125.133 5.79309 125.747 5.13258 126.537 4.65909C127.333 4.18561 128.266 3.94886 129.336 3.94886C130.055 3.94886 130.725 4.06487 131.346 4.29688C131.971 4.52415 132.515 4.86742 132.979 5.3267C133.448 5.78598 133.812 6.36364 134.073 7.05966C134.333 7.75095 134.463 8.56061 134.463 9.48864V10.3196H125.252V8.4446H131.615C131.615 8.009 131.521 7.62311 131.331 7.28693C131.142 6.95076 130.879 6.68797 130.543 6.49858C130.212 6.30445 129.826 6.20739 129.385 6.20739C128.926 6.20739 128.519 6.31392 128.164 6.52699C127.813 6.73532 127.539 7.01705 127.34 7.37216C127.141 7.72254 127.039 8.11316 127.034 8.54403V10.3267C127.034 10.8665 127.134 11.3329 127.333 11.7259C127.536 12.1188 127.823 12.4219 128.192 12.6349C128.561 12.848 128.999 12.9545 129.506 12.9545C129.842 12.9545 130.15 12.9072 130.429 12.8125C130.709 12.7178 130.948 12.5758 131.147 12.3864C131.346 12.197 131.497 11.965 131.601 11.6903L134.4 11.875C134.257 12.5473 133.966 13.1345 133.526 13.6364C133.09 14.1335 132.527 14.5218 131.836 14.8011C131.149 15.0758 130.356 15.2131 129.456 15.2131Z" fill="black"/>
</svg>
