<svg width="22" height="22" viewBox="0 0 22 22" fill="none" xmlns="http://www.w3.org/2000/svg">
<path d="M21.7314 20.4353L16.2598 14.9637C17.7509 13.1401 18.484 10.8131 18.3075 8.4641C18.131 6.11511 17.0584 3.92382 15.3116 2.34348C13.5648 0.763133 11.2774 -0.0853503 8.92249 -0.0264711C6.56762 0.0324081 4.32546 0.994145 2.6598 2.65981C0.99413 4.32548 0.0323928 6.56764 -0.0264864 8.92251C-0.0853656 11.2774 0.763118 13.5648 2.34346 15.3116C3.9238 17.0585 6.1151 18.131 8.46408 18.3075C10.8131 18.484 13.14 17.7509 14.9637 16.2598L20.4352 21.7314C20.6081 21.8984 20.8397 21.9908 21.08 21.9887C21.3204 21.9866 21.5503 21.8902 21.7202 21.7203C21.8902 21.5503 21.9866 21.3204 21.9887 21.08C21.9908 20.8397 21.8984 20.6081 21.7314 20.4353ZM9.16665 16.5C7.71626 16.5 6.29843 16.0699 5.09247 15.2641C3.88651 14.4583 2.94658 13.313 2.39153 11.973C1.83649 10.633 1.69127 9.15853 1.97423 7.73601C2.25718 6.31348 2.95562 5.0068 3.9812 3.98122C5.00679 2.95563 6.31346 2.2572 7.73599 1.97424C9.15852 1.69128 10.633 1.83651 11.973 2.39155C13.313 2.94659 14.4583 3.88652 15.2641 5.09249C16.0699 6.29845 16.5 7.71627 16.5 9.16667C16.4978 11.1109 15.7245 12.9749 14.3497 14.3497C12.9749 15.7245 11.1109 16.4978 9.16665 16.5Z" fill="black"/>
</svg>
